HIERARCHY
ROOT root
{
	OFFSET	0	13.1	24.9
	CHANNELS 6  Xposition Yposition Zposition Xrotation Yrotation Zrotation
	JOINT spine_1
	{
		OFFSET	0	9.99999	0
		CHANNELS 3  Xrotation Yrotation Zrotation
		JOINT spine_2
		{
			OFFSET	0	112	-10
			CHANNELS 3  Xrotation Yrotation Zrotation
			JOINT spine_3
			{
				OFFSET	0	206.5	19.3
				CHANNELS 3  Xrotation Yrotation Zrotation
				JOINT spine_4
				{
					OFFSET	0	110.4	14.6
					CHANNELS 3  Xrotation Yrotation Zrotation
					JOINT neck_1
					{
						OFFSET	0	71.8	-50.3
						CHANNELS 3  Xrotation Yrotation Zrotation
						JOINT neck_2
						{
							OFFSET	0	86.2	-25.8
							CHANNELS 3  Xrotation Yrotation Zrotation
							JOINT head_ee
							{
								OFFSET	0	179.8	-8.7
								CHANNELS 3  Xrotation Yrotation Zrotation
								End Site
								{
									OFFSET	1	0	0
								}
							}
						}
					}
					JOINT left_clavicle
					{
						OFFSET	-43.2	22.4	-70.8
						CHANNELS 3  Xrotation Yrotation Zrotation
						JOINT left_shoulder
						{
							OFFSET	-93.9	-5.79999	48.7
							CHANNELS 3  Xrotation Yrotation Zrotation
							JOINT left_elbow
							{
								OFFSET	-291.4	-30.8	15.2
								CHANNELS 3  Xrotation Yrotation Zrotation
								JOINT left_lowarm_twist
								{
									OFFSET	-110.7	-3.89999	13.6
									CHANNELS 3  Xrotation Yrotation Zrotation
									JOINT left_hand
									{
										OFFSET	-110.7	-3.89999	13.6
										CHANNELS 3  Xrotation Yrotation Zrotation
										JOINT left_ee
										{
											OFFSET	-80.8	-5.10001	12.1
											CHANNELS 3  Xrotation Yrotation Zrotation
											End Site
											{
												OFFSET	1	0	0
											}
										}
									}
								}
							}
						}
					}
					JOINT right_clavicle
					{
						OFFSET	43.2	22.4	-70.8
						CHANNELS 3  Xrotation Yrotation Zrotation
						JOINT right_shoulder
						{
							OFFSET	93.9	-5.79999	48.7
							CHANNELS 3  Xrotation Yrotation Zrotation
							JOINT right_elbow
							{
								OFFSET	291.4	-30.8	15.2
								CHANNELS 3  Xrotation Yrotation Zrotation
								JOINT right_lowarm_twist
								{
									OFFSET	110.7	-3.89999	13.6
									CHANNELS 3  Xrotation Yrotation Zrotation
									JOINT right_hand
									{
										OFFSET	110.7	-3.89999	13.6
										CHANNELS 3  Xrotation Yrotation Zrotation
										JOINT right_ee
										{
											OFFSET	80.8	-5.10001	12.1
											CHANNELS 3  Xrotation Yrotation Zrotation
											End Site
											{
												OFFSET	1	0	0
											}
										}
									}
								}
							}
						}
					}
				}
			}
		}
	}
	JOINT left_hip
	{
		OFFSET	-82.8	-127.5	0.300001
		CHANNELS 3  Xrotation Yrotation Zrotation
		JOINT left_knee
		{
			OFFSET	-28.2	-396.7	2.2
			CHANNELS 3  Xrotation Yrotation Zrotation
			JOINT left_ankle
			{
				OFFSET	-11.7	-411.3	35.4
				CHANNELS 3  Xrotation Yrotation Zrotation
				JOINT left_toes
				{
					OFFSET	0	-60	-88.6
					CHANNELS 3  Xrotation Yrotation Zrotation
					JOINT left_foot_ee
					{
						OFFSET	-22.5	-16.5	-42.2
						CHANNELS 3  Xrotation Yrotation Zrotation
						End Site
						{
							OFFSET	1	0	0
						}
					}
				}
			}
		}
	}
	JOINT right_hip
	{
		OFFSET	82.8	-127.5	0.300001
		CHANNELS 3  Xrotation Yrotation Zrotation
		JOINT right_knee
		{
			OFFSET	28.2	-396.7	2.2
			CHANNELS 3  Xrotation Yrotation Zrotation
			JOINT right_ankle
			{
				OFFSET	11.7	-411.3	35.4
				CHANNELS 3  Xrotation Yrotation Zrotation
				JOINT right_toes
				{
					OFFSET	0	-60	-88.6
					CHANNELS 3  Xrotation Yrotation Zrotation
					JOINT right_foot_ee
					{
						OFFSET	22.5	-16.5	-42.2
						CHANNELS 3  Xrotation Yrotation Zrotation
						End Site
						{
							OFFSET	1	0	0
						}
					}
				}
			}
		}
	}
}
MOTION
Frames: 6
Frame Time: 0.02
1983.73 696.751 -1439.26 -10.4291 61.5276 14.181 3.69044 0.195387 0.799965 3.69078 0.144089 0.810775 3.69265 0.0235344 0.823142 3.69174 0.153235 0.809097 -11.5385 12.9164 -3.08582 -11.8738 26.4533 0.694214 -0.0 0.0 -0.0 -4.23186 22.5283 -3.31517 -29.6858 -8.43373 70.7491 0.7688 -20.8488 0.141442 -4.99118 -0.202372 0.604867 1.94299 8.27443 16.2424 -0.0 0.0 -0.0 11.5538 26.8853 -22.2639 -4.6739 29.2804 -58.335 2.13668 46.6206 -0.920743 15.0851 -0.282749 1.90069 0.678255 7.73461 -1.29637 0.0 0.0 0.0 26.5551 7.49812 -15.418 4.23323 -0.197328 -0.619385 -9.72981 -0.493379 1.46884 32.8686 -0.0 -0.0 -0.0 0.0 -0.0 -7.33132 29.7226 -4.7206 -10.1192 -0.282563 -1.52526 33.3518 -0.755327 4.25175 10.9586 -0.0 -0.0 0.0 0.0 0.0 
1956.94 694.269 -1436.59 -9.40554 61.3117 13.0972 3.72217 0.173421 0.718386 3.72244 0.127358 0.727965 3.72393 0.0195402 0.738763 3.72319 0.135966 0.726407 -11.3593 12.3329 -3.85838 -11.6435 25.843 -0.272421 -0.0 0.0 -0.0 -3.99724 23.4242 -2.7793 -27.9604 -9.90028 69.7388 0.641458 -17.6282 0.0994658 -6.8471 -0.29097 0.825015 1.91987 8.47503 16.1581 -0.0 0.0 -0.0 11.29 27.0717 -21.6448 -5.79176 28.9202 -58.9954 2.1011 46.1403 -0.894983 15.1508 -0.282879 1.90908 0.646925 6.43049 -1.63808 0.0 0.0 0.0 26.2857 7.55891 -15.2987 0.183333 -0.00759264 -0.0271094 -11.1655 -0.192054 1.68739 34.2545 -0.0 -0.0 -0.0 0.0 -0.0 -8.04887 30.4247 -4.01547 -13.3891 -0.315811 -2.0258 31.3929 -1.87005 4.0455 12.1788 -0.0 -0.0 0.0 0.0 0.0 
1933.44 695.891 -1436.29 -7.8526 61.0357 11.5738 3.62844 0.242076 0.646804 3.62865 0.200428 0.660896 3.63087 0.100528 0.683263 3.63027 0.207173 0.658813 -11.7552 12.7593 -2.99968 -12.0999 26.1076 0.78318 -0.0 0.0 -0.0 -3.61662 23.283 -2.28375 -25.3822 -11.8974 68.6638 0.545654 -15.1258 0.0724468 -7.53685 -0.325712 0.906094 2.0163 8.92247 16.9702 -0.0 0.0 -0.0 11.6782 27.954 -22.4168 -7.72408 28.7119 -58.9491 1.9077 43.3763 -0.758767 15.4061 -0.283291 1.94169 0.45319 3.77766 -1.45083 0.0 0.0 0.0 25.7089 7.67483 -15.0283 -5.00897 0.173584 0.748886 -11.1491 -0.281027 1.6853 35.7131 -0.0 -0.0 -0.0 0.0 -0.0 -7.95359 30.5839 -3.80228 -16.8607 -0.319804 -2.55835 29.5735 -2.16154 3.85172 13.1529 -0.0 -0.0 0.0 0.0 0.0 
1910.98 699.175 -1423.88 -6.32663 61.4643 10.2535 3.40494 0.225052 0.664386 3.40517 0.18232 0.677359 3.40724 0.0774634 0.697176 3.40661 0.186595 0.676194 -12.601 11.8304 -3.72103 -12.9543 24.8196 0.00364129 -0.0 0.0 -0.0 -2.89687 23.5946 -1.22778 -23.4405 -12.7525 68.2906 0.549765 -15.2345 0.0735233 -8.7927 -0.39147 1.05263 1.66313 9.4803 14.7953 -0.0 0.0 -0.0 11.5628 27.4171 -22.2211 -9.4979 27.8481 -58.5011 1.76427 41.1486 -0.662286 14.4917 -0.281143 1.82492 0.689284 3.22265 -3.27289 0.0 0.0 0.0 25.2367 6.27792 -14.3076 -7.93064 0.244375 1.19161 -12.9341 0.630059 1.95449 37.5179 -0.0 -0.0 -0.0 0.0 -0.0 -9.05854 32.5346 -2.94927 -18.3342 -0.311744 -2.78428 28.3697 -1.94663 3.72202 14.0297 -0.0 -0.0 0.0 0.0 0.0 
1887.22 709.538 -1417.95 -6.24952 62.5083 9.39992 3.24068 0.278158 0.707814 3.24093 0.232556 0.724078 3.2438 0.117892 0.751313 3.24308 0.235066 0.723267 -13.4803 11.5831 -2.05708 -13.8718 23.3322 1.70475 -0.0 0.0 -0.0 -2.36633 23.1751 -0.576388 -21.6638 -15.9734 67.1352 0.54025 -14.9828 0.0710432 -9.99574 -0.457469 1.19165 1.59309 10.321 14.6304 -0.0 0.0 -0.0 11.2335 27.126 -21.5108 -11.2877 27.3594 -58.5396 1.59715 38.3475 -0.555399 15.738 -0.28361 1.98408 0.852919 1.83554 -4.95111 0.0 0.0 0.0 23.1378 6.13796 -11.7689 -8.16275 0.249029 1.22693 -9.13104 3.04006 1.36626 39.5292 -0.0 -0.0 -0.0 0.0 -0.0 -4.43543 34.076 -4.8869 -29.5277 -0.061865 -4.48115 26.0366 -8.41262 3.45172 16.2615 -0.0 -0.0 0.0 0.0 0.0 
1866.8 713.048 -1414.45 -4.71862 62.792 7.63986 3.08678 0.321934 0.499153 3.08687 0.28952 0.518627 3.08948 0.204415 0.557682 3.08917 0.289924 0.518401 -14.8657 10.9817 -1.26672 -15.2864 21.7464 2.53241 -0.0 0.0 -0.0 -2.10171 23.3947 -0.173559 -19.0106 -16.5581 66.9497 0.628207 -17.286 0.0954908 -10.939 -0.511256 1.29967 1.2895 10.414 12.6597 -0.0 0.0 -0.0 11.2618 27.3407 -21.5494 -13.3375 26.8675 -58.5419 1.47626 36.1756 -0.482192 14.2559 -0.280286 1.79481 0.807456 0.0506469 -5.37987 0.0 0.0 0.0 20.7847 5.73033 -9.94876 -8.87669 0.262447 1.33566 -8.8283 2.09481 1.3227 40.1065 -0.0 -0.0 -0.0 0.0 -0.0 -1.74083 35.1997 -5.80676 -35.9786 0.230948 -5.42713 23.7261 -9.80114 3.18612 15.6346 -0.0 -0.0 0.0 0.0 0.0 
